<?xml version="1.0" encoding="UTF-8"?>
<svg id="Layer_1" data-name="Layer 1" xmlns="http://www.w3.org/2000/svg" viewBox="0 0 166.67 96.49">
  <defs>
    <style>
      .cls-1 {
        fill: #659ad2;
      }

      .cls-2 {
        fill: #2e5380;
      }

      .cls-3 {
        fill: #4060ac;
      }

      .cls-4 {
        fill: #4a79bd;
      }

      .cls-5 {
        fill: #b7d5f0;
      }
    </style>
  </defs>
  <g>
    <path class="cls-4" d="M149.96,51.36c.85,17.67-14.62,29.32-30.86,31.4-27.2,4.84-56.14,5.4-83.16-.51-21.78-5.71-32.12-31.49-14.66-47.96C51.6,7.03,149.31,8.62,149.96,51.36Z"/>
    <path class="cls-1" d="M17,63.99C2.08,1.77,182.82,6.68,143.23,70.85,180.78,11.56,54.75,2.57,21.28,34.29c-15.86,14.5-8.89,39.61,10.81,46.5-6.9-3.61-12.89-9.23-15.09-16.8Z"/>
    <g>
      <path class="cls-5" d="M52.36,55h-4.35c-.19,1.52.56,7.68-.67,8.79-1.63,1.69-4.34.29-4.07-2.12,0,0,0-18.05,0-18.05,0-2.12.92-2.89,3-2.91h6.09c2.98.07,4.66.12,6.64,1.74,2.95,2.5,2.8,8.46-.07,10.71-1.47,1.23-3.66,1.85-6.57,1.85ZM51.21,44.26h-3.2v7.16c1.59-.03,4.63.15,6-.35,2.52-.57,2.99-4.08,1.4-5.77-.68-.69-2.08-1.04-4.2-1.04Z"/>
      <path class="cls-5" d="M69.74,43.17v17.05h9.62c1.97-.21,3.19,2.04,1.77,3.36-.71,1.09-12.02.32-13.23.54-1.03,0-1.78-.23-2.23-.69-1.41-.56-.39-18.9-.68-20.26-.3-3.81,5.03-3.81,4.75,0Z"/>
      <path class="cls-5" d="M99.41,61.47l-1.12-2.94h-9.52c-.89,1.75-1.48,6.24-3.75,5.99-1.57.03-2.73-1.69-2.11-3.13,0-.1,6.28-16.04,6.52-16.63.58-1.35,1.03-3.33,2.45-4.08,1.36-.74,3.52-.39,4.36.97,1.08,1.74,6.53,16.01,7.52,18.2,1.16,2.25.95,4.44-1.6,4.68-1.7.1-2.2-1.8-2.75-3.05ZM90.02,54.96h7l-3.53-9.67-3.47,9.67Z"/>
      <path class="cls-5" d="M111.12,61.63v-7.43c-1.12-2.13-6.84-9.65-7.09-11.9-.08-1.77,2.55-2.66,3.67-1.45.99,1.08,4.93,7.86,5.89,9.31.97-1.46,4.73-7.78,5.7-9.05,1.07-1.5,3.82-.75,3.79,1.13-.15,2.21-6.15,9.9-7.21,11.97-.23,1.59.61,8.46-.67,9.6-1.66,1.66-4.35.3-4.07-2.17Z"/>
    </g>
    <path class="cls-2" d="M79.78,74.23c-26.23,0-49.83-4.64-66.24-12.05,5.49,16.72,24.63,22.46,40.61,23.05,26.51.81,84.22,7.1,94.45-24.26-16.47,8.11-41.18,13.26-68.81,13.26Z"/>
    <g>
      <g>
        <path class="cls-1" d="M36.86,31.27c-8.13-1.35-18.2,12.69-7.48,11.86,7.38-.88,13.85-11.31,7.48-11.86Z"/>
        <path class="cls-1" d="M22.9,42.69s-1.86-.07-3.59,3.59c-1.73,3.66-.47,6.15,1.79,4.61,2.26-1.54,5.18-9,1.79-8.2Z"/>
      </g>
      <path class="cls-1" d="M142.87,55.79c-.37,14.2-15.75,22.26-14.12,12.01.95-2.55,7.7-7.49,8.59-12.55.89-5.06,6.84-5.65,5.53.54Z"/>
    </g>
  </g>
  <path class="cls-3" d="M147.33,33.09C124.4,1.95-3,2.78,10.08,62.91c.73,2.51,1.85,4.93,3.26,7.14,3.18,4.97,7.82,8.91,12.94,11.79h-.01c8.09,4.83,19.14,6.44,27.6,6.9,27.45,1.32,74.69,4.91,92.96-16.73,8.42-10.9,9.2-28.09.51-38.91ZM149.96,52.06c-.06,3.01-.49,6.03-1.36,8.91h0c-3.69,13.26-16.85,19.65-29.49,21.79-26.88,4.6-60.92,6.26-87.01-1.97h0c-6.16-2.67-11.92-6.74-15.64-12.41C-14.4,2.97,156.57,1.09,149.96,52.06Z"/>
</svg>