<?xml version="1.0" encoding="UTF-8"?>
<svg id="Layer_1" data-name="Layer 1" xmlns="http://www.w3.org/2000/svg" viewBox="0 0 229.82 127">
  <defs>
    <style>
      .cls-1 {
        fill: #659ad2;
      }

      .cls-2 {
        fill: #2e5380;
      }

      .cls-3 {
        fill: #4060ac;
      }

      .cls-4 {
        fill: #4a79bd;
      }

      .cls-5 {
        fill: #b7d5f0;
      }
    </style>
  </defs>
  <g>
    <path class="cls-4" d="M214.43,63.31c1.19,24.86-20.56,41.24-43.41,44.18-38.27,6.8-78.98,7.59-116.99-.72-30.65-8.03-45.19-44.3-20.62-67.47C76.06.96,213.51,3.19,214.43,63.31Z"/>
    <path class="cls-1" d="M27.37,81.08C6.39-6.45,260.66.46,204.96,90.73,257.78,7.32,80.48-5.33,33.41,39.3c-22.31,20.41-12.51,55.72,15.2,65.41-9.71-5.07-18.13-12.98-21.23-23.63Z"/>
    <path class="cls-2" d="M115.7,95.49c-36.9,0-70.1-6.53-93.19-16.95,7.72,23.52,34.64,31.6,57.12,32.43,37.3,1.13,118.48,9.99,132.87-34.13-23.16,11.4-57.93,18.65-96.8,18.65Z"/>
    <g>
      <g>
        <path class="cls-1" d="M55.31,35.05c-11.44-1.9-25.6,17.85-10.52,16.68,10.38-1.24,19.49-15.91,10.52-16.68Z"/>
        <path class="cls-1" d="M35.68,51.12s-2.62-.1-5.05,5.05c-2.43,5.15-.65,8.65,2.52,6.49,3.18-2.16,7.29-12.67,2.52-11.53Z"/>
      </g>
      <path class="cls-1" d="M204.45,69.55c-.53,19.98-22.16,31.32-19.87,16.9,1.34-3.59,10.83-10.53,12.09-17.65,1.26-7.12,9.63-7.95,7.78.76Z"/>
    </g>
    <g>
      <path class="cls-5" d="M69.58,52.29l10.12-.29c.05.25.11.6.17,1.04.06.44.15,1.33.27,2.66.12,1.33.19,2.65.21,3.95.03,1.3,0,2.84-.1,4.61-.09,1.77-.28,3.42-.56,4.95-.28,1.52-.73,3.06-1.33,4.61-.6,1.55-1.35,2.87-2.23,3.95s-2.03,1.97-3.43,2.66c-1.4.69-2.98,1.04-4.75,1.04s-3.35-.34-4.73-1.02c-1.39-.68-2.51-1.59-3.37-2.72-.86-1.14-1.58-2.44-2.17-3.91-.59-1.47-1.01-3.02-1.25-4.66-.24-1.64-.41-3.26-.5-4.88-.09-1.62-.1-3.17-.02-4.63.08-1.47.17-2.77.27-3.91.1-1.14.21-2.05.31-2.74l.15-1,10.35.92-.54,6.48c-.51,8.31-.01,12.47,1.5,12.47.59,0,1.04-.67,1.37-2.02.32-1.34.51-2.98.56-4.91.05-1.93.06-3.84.02-5.76-.04-1.91-.1-3.53-.17-4.86l-.15-2.04Z"/>
      <path class="cls-5" d="M98.64,61.43c1.46,2.74,2.12,8.6,1.96,17.58-.03,1.36-.05,2.05-.08,2.08l-8.24.46.27-6.07c.08-5.99-.38-8.99-1.39-9.02-.64-.03-1.08,1.26-1.33,3.87-.24,2.61-.31,5.21-.21,7.82l.12,3.95-7.54-.83-.38-22.41,5.85.46-.15,3.28c.74-1.52,1.83-2.67,3.25-3.43,1.42-.76,2.89-.96,4.39-.58s2.66,1.32,3.48,2.85Z"/>
      <path class="cls-5" d="M106.68,59.4c-.9,0-1.69-.14-2.37-.42-.68-.28-1.18-.63-1.5-1.06-.32-.43-.55-.9-.69-1.41-.14-.51-.12-1.03.08-1.54.19-.51.47-.98.83-1.41s.86-.78,1.5-1.06c.64-.28,1.36-.42,2.16-.42.95,0,1.77.14,2.46.42.69.28,1.21.63,1.54,1.06.33.43.56.9.69,1.41.13.51.09,1.03-.12,1.54-.21.51-.49.98-.87,1.41-.37.43-.89.78-1.54,1.06s-1.38.42-2.17.42ZM102.07,60.89l9.35.37-.58,19.91-8.28.38-.5-20.66Z"/>
      <path class="cls-5" d="M127.01,71.2l3.19,7.11c-1.28,1.03-2.7,1.82-4.25,2.37-1.55.55-3.03.82-4.45.81-1.41-.01-2.67-.4-3.77-1.14-1.1-.75-1.85-1.84-2.23-3.28-.49-1.97-.8-5.49-.92-10.56l-2.08-.08-.15-6.11,2.16.12.12-8.35,7.74.54c-.13,2.55-.24,5.28-.35,8.19l3.31.17-.31,6.07-3.16-.17c-.05,4.63.12,6.96.5,6.98.33.03.89-.18,1.65-.62.77-.44,1.46-.9,2.08-1.37l.92-.67Z"/>
      <path class="cls-5" d="M137.75,73.95c.03.08.08.18.17.29.09.11.34.26.75.44.41.18.91.28,1.5.29.59.01,1.44-.14,2.56-.46,1.12-.32,2.37-.82,3.75-1.52l2.58,6.61c-.05.06-.13.12-.25.19-.12.07-.37.22-.77.46-.4.24-.81.44-1.23.62-.42.18-.97.37-1.64.58-.67.21-1.33.37-2,.48-.67.11-1.43.16-2.29.15-.86-.01-1.71-.1-2.56-.27-2.9-.55-5.09-1.9-6.58-4.03-1.49-2.13-2.13-4.96-1.92-8.48.18-2.88,1.07-5.32,2.68-7.32,1.6-2,3.82-3.1,6.64-3.33,1.31-.11,2.55.08,3.73.58,1.18.5,2.23,1.27,3.16,2.31.92,1.04,1.66,2.39,2.21,4.05.55,1.66.83,3.53.83,5.61l-11.32,2.74ZM138.82,64.92c-.64.22-1.11.68-1.4,1.37-.3.69-.42,1.28-.37,1.77.05.48.06.78.04.89l4.77-1.21c-.03-.11-.08-.24-.15-.39s-.23-.41-.44-.77c-.22-.36-.44-.67-.65-.93-.22-.26-.49-.48-.83-.64-.33-.17-.65-.19-.96-.08Z"/>
      <path class="cls-5" d="M166.15,53.49l12.74-1.58.65,28.72-9.12.75.39-19.95-3.7.79-.96-8.73Z"/>
    </g>
  </g>
  <path class="cls-3" d="M210.73,37.62C178.46-6.19-.76-5.02,17.65,79.56c1.03,3.53,2.6,6.94,4.58,10.04,4.47,6.99,11.01,12.54,18.2,16.58h-.02c11.39,6.79,26.92,9.06,38.83,9.71,38.62,1.86,105.07,6.91,130.77-23.54,11.84-15.34,12.94-39.52.71-54.74ZM214.42,64.3c-.09,4.24-.69,8.48-1.92,12.54h0c-5.2,18.66-23.7,27.64-41.48,30.66-37.81,6.47-85.7,8.81-122.41-2.78h0c-8.67-3.75-16.77-9.49-22.01-17.46C-16.8-4.76,223.72-7.4,214.42,64.3Z"/>
</svg>